# xmcd CD database file
# Generated: Sun Apr 8 22:23:48 2001 by KSCD
# 
# Track frame offsets:
#       150
#       16851
#       40101
#       61862
#       81300
#       99942
#       116363
#       133900
#       154833
#       181654
#       200793
#       221693
#       247214
#       273800
#       286266
#       299207
#       309042
#
# Disc length: 4564 seconds
#
# Revision: 3
# Processed by: cddbd v1.4b41PL1 Copyright (c) Steve Scherf et al.
# Submitted via: Kscd 1.3.0
#
DISCID=f411d211
DTITLE=Various Artist - Notodden Blues Festival - The First Ten Years
DYEAR=1900
DGENRE=
TTITLE0=Roomful Of Blues - Further On Up The Road
TTITLE1=Fabulous Thunderbirds - My Babe
TTITLE2=Luther Allison - Cherry Red Wine
TTITLE3=Robert Cray Band - Phone Boot
TTITLE4=Angela Strehli - Can't Stop These Teardrops
TTITLE5=Omar and The Howlers - Loud Mouth Woman
TTITLE6=Little Charlie and The Nightcats - The Booty Song
TTITLE7=Paul deLay - What Went Wrong
TTITLE8=Fabulous Thunderbirds - Wait On Time
TTITLE9=Doug Sahm and The Last Real Texas Blues Band - Wasted Days And Wasted...
TTITLE10=Roy Rogers and The Delta Rhythm Kings - Vida's Place
TTITLE11=Charlie Musselwhite - If I Should Have Bad Luck
TTITLE12=Reidar Larsen and Boogie Bastards w. Spirit Of Love Singers - Robbery
TTITLE13=B.B. King - I'm A Bluesman
TTITLE14=B.B. King - Guess Who
TTITLE15=B.B. King - Please Accept My Love
TTITLE16=Good Time Charlie - Playin' With Fire
EXTD=
EXTT0=
EXTT1=
EXTT2=
EXTT3=
EXTT4=
EXTT5=
EXTT6=
EXTT7=
EXTT8=
EXTT9=
EXTT10=
EXTT11=
EXTT12=
EXTT13=
EXTT14=
EXTT15=
EXTT16=
PLAYORDER=
